<svg width="390" height="300" viewBox="0 0 390 300" fill="none" xmlns="http://www.w3.org/2000/svg">
<path d="M454 154C409.181 160.139 326.108 211.829 280.072 268.838C221.675 341.154 130.896 257.463 76.0438 204.919C37.293 168.626 -44.967 132.712 -64 279.401" stroke="url(#paint0_linear_122_39)" stroke-opacity="0.13" stroke-width="6"/>
<path d="M-63 199C-47.9283 161.825 12.8026 104.136 135.153 170.78C257.504 237.423 398.697 86.028 454 2" stroke="url(#paint1_linear_122_39)" stroke-opacity="0.13" stroke-width="6"/>
<path d="M284.773 157.905C287.197 171.917 272.331 168.185 272.331 168.185C266.11 150.637 256.156 152.274 256.156 152.274C263.949 157.97 264.538 162.815 264.538 162.815C243.779 148.083 215.554 159.935 204.814 165.5C198.789 156.988 186.609 137.935 190.931 129.292C196.628 117.964 208.219 124.446 208.219 124.446C231.664 124.054 230.354 115.673 230.354 115.673C224.133 120.518 205.796 115.673 205.796 115.673C221.71 115.673 228.455 109.19 228.455 109.19C216.602 112.137 203.373 99.5 203.373 99.5C198.527 74.6845 176.131 85.2262 176.131 85.2262C190.145 82.8036 186.412 97.6667 186.412 97.6667C168.862 103.887 170.499 113.839 170.499 113.839C176.196 106.048 181.043 105.458 181.043 105.458C164.998 128.048 180.453 159.476 185.037 167.661C176.655 173.488 157.009 186.321 148.168 181.869C136.839 176.173 143.322 164.583 143.322 164.583C143.06 141.143 134.678 142.452 134.678 142.452C139.524 148.673 134.678 167.006 134.678 167.006C134.678 151.095 128.195 144.351 128.195 144.351C131.142 156.202 118.503 169.429 118.503 169.429C93.6832 174.274 104.227 196.667 104.227 196.667C101.804 182.655 116.669 186.387 116.669 186.387C122.89 203.935 132.844 202.298 132.844 202.298C125.051 196.601 124.462 191.756 124.462 191.756C146.4 207.339 176.72 193.196 185.889 188.22C192.044 197.06 203.504 215.262 199.248 223.708C193.55 235.036 181.959 228.554 181.959 228.554C158.515 228.815 159.825 237.196 159.825 237.196C166.046 232.351 184.382 237.196 184.382 237.196C168.469 237.196 161.724 243.679 161.724 243.679C173.577 240.732 186.805 253.369 186.805 253.369C191.651 278.185 214.048 267.643 214.048 267.643C200.034 270.065 203.766 255.202 203.766 255.202C221.317 248.982 219.68 239.03 219.68 239.03C213.982 246.821 209.136 247.411 209.136 247.411C224.853 225.345 210.381 194.768 205.469 185.798C214.375 179.577 232.384 168.446 240.701 172.637C252.03 178.333 245.547 189.923 245.547 189.923C245.809 213.363 254.191 212.054 254.191 212.054C249.345 205.833 254.191 187.5 254.191 187.5C254.191 203.411 260.674 210.155 260.674 210.155C257.727 198.304 270.366 185.077 270.366 185.077C295.317 180.298 284.773 157.905 284.773 157.905Z" fill="url(#paint2_linear_122_39)"/>
<defs>
<linearGradient id="paint0_linear_122_39" x1="454" y1="154.342" x2="-64" y2="154.342" gradientUnits="userSpaceOnUse">
<stop stop-color="#343045"/>
<stop offset="0.348958" stop-color="#C0B7E8"/>
<stop offset="0.6875" stop-color="#8176AF"/>
<stop offset="1" stop-color="#343045"/>
</linearGradient>
<linearGradient id="paint1_linear_122_39" x1="454" y1="2.4693" x2="-63" y2="2.46928" gradientUnits="userSpaceOnUse">
<stop stop-color="#343045"/>
<stop offset="0.348958" stop-color="#C0B7E8"/>
<stop offset="0.6875" stop-color="#8176AF"/>
<stop offset="1" stop-color="#343045"/>
</linearGradient>
<linearGradient id="paint2_linear_122_39" x1="194.494" y1="83.002" x2="194.494" y2="269.867" gradientUnits="userSpaceOnUse">
<stop stop-color="#C0B7E8"/>
<stop offset="1" stop-color="#8176AF"/>
</linearGradient>
</defs>
</svg>
